# xmcd
#
# Track frame offsets:
#	150
#	20988
#	31338
#	49263
#	69288
#	99288
#	115188
#	135813
#	157713
#	176988
#	194088
#	204288
#	222363
#
# Disc length: 3196 seconds
#
# Revision: 2
# Processed by: cddbd v1.5.2PL0 Copyright (c) Steve Scherf et al.
# Submitted via: audiograbber 1.83.01
#
DISCID=b10c7a0d
DTITLE=Various Artist - Men's Night, American Blues
DYEAR=1900
DGENRE=Blues
TTITLE0=Gregg Smith - Lowdown
TTITLE1=John Lee Hooker - Dimples
TTITLE2=Pepe Ahlquist And The Rolling Tumbleweed - Pocket Knife Man
TTITLE3=Pinetop Perkins - Just Keep On Drinking
TTITLE4=Gregg Smith - Young Men Don't Get The Blues
TTITLE5=Pepe Ahlquist And The Rolling Tumbleweed - Don't Stare At Me
TTITLE6=Pinetop Perkins - Got My Mojo Working
TTITLE7=Gregg Smith - Blues In My Blood
TTITLE8=Pepe Ahlquist And The Rolling Tumbleweed - Cicada Of Chicago
TTITLE9=Bo Diddley - Mona, I Need You Baby
TTITLE10=Memphis Slim - Little Lonely Girl
TTITLE11=Gregg Smith - Money Talks
TTITLE12=John Lee Hooker - Blues Before Sunrise
EXTD=
EXTT0=
EXTT1=
EXTT2=
EXTT3=
EXTT4=
EXTT5=
EXTT6=
EXTT7=
EXTT8=
EXTT9=
EXTT10=
EXTT11=
EXTT12=
PLAYORDER=
